<svg width="760" height="116" viewBox="0 0 760 116" fill="none" xmlns="http://www.w3.org/2000/svg">
  <defs>
    <linearGradient id="g" x1="0" y1="0" x2="760" y2="116" gradientUnits="userSpaceOnUse">
      <stop stop-color="#F8FAFC"/>
      <stop offset="1" stop-color="#CBD5E1"/>
    </linearGradient>
    <filter id="s" x="-8%" y="-35%" width="116%" height="180%">
      <feDropShadow dx="0" dy="10" stdDeviation="12" flood-color="#000" flood-opacity="0.25"/>
    </filter>
  </defs>
  <rect x="6" y="8" width="748" height="100" rx="24" fill="url(#g)" filter="url(#s)"/>
  <rect x="18" y="20" width="724" height="76" rx="18" fill="#0B0D10"/>
  <g transform="translate(46 34)">
    <path d="M24 0v34m0 0 14-14M24 34 10 20M3 50h42" stroke="#F8FAFC" stroke-width="7" stroke-linecap="round" stroke-linejoin="round"/>
  </g>
  <text x="130" y="53" fill="#FFFFFF" font-family="Segoe UI, Arial, sans-serif" font-size="30" font-weight="900" letter-spacing="0.8">DOWNLOAD PANAGIA.PDF</text>
  <text x="132" y="80" fill="#AEB7C2" font-family="Segoe UI, Arial, sans-serif" font-size="13" font-weight="800" letter-spacing="4">LATEST WINDOWS INSTALLER</text>
  <g transform="translate(615 35)">
    <rect width="48" height="48" rx="12" fill="#F8FAFC"/>
    <path d="M10 11h13v13H10V11Zm15 0h13v13H25V11ZM10 26h13v13H10V26Zm15 0h13v13H25V26Z" fill="#0B0D10"/>
  </g>
  <text x="700" y="65" text-anchor="middle" fill="#F8FAFC" font-family="Segoe UI, Arial, sans-serif" font-size="16" font-weight="900">10+</text>
</svg>
